<mxfile host="app.diagrams.net" agent="Mozilla/5.0 (Windows NT 10.0; Win64; x64) AppleWebKit/537.36 (KHTML, like Gecko) Chrome/131.0.0.0 Safari/537.36" version="24.8.6">
  <diagram id="C5RBs43oDa-KdzZeNtuy" name="Page-1">
    <mxGraphModel dx="1313" dy="663" grid="1" gridSize="10" guides="1" tooltips="1" connect="1" arrows="1" fold="1" page="1" pageScale="1" pageWidth="827" pageHeight="1169" math="0" shadow="0">
      <root>
        <mxCell id="WIyWlLk6GJQsqaUBKTNV-0" />
        <mxCell id="WIyWlLk6GJQsqaUBKTNV-1" parent="WIyWlLk6GJQsqaUBKTNV-0" />
        <mxCell id="RUBS9IUcs-Wi7rJqknGV-4" value="" style="edgeStyle=orthogonalEdgeStyle;rounded=0;orthogonalLoop=1;jettySize=auto;html=1;" parent="WIyWlLk6GJQsqaUBKTNV-1" source="RUBS9IUcs-Wi7rJqknGV-2" target="RUBS9IUcs-Wi7rJqknGV-3" edge="1">
          <mxGeometry relative="1" as="geometry" />
        </mxCell>
        <mxCell id="RUBS9IUcs-Wi7rJqknGV-2" value="Start" style="ellipse;shape=doubleEllipse;html=1;dashed=0;whiteSpace=wrap;aspect=fixed;" parent="WIyWlLk6GJQsqaUBKTNV-1" vertex="1">
          <mxGeometry x="54" y="10" width="60" height="60" as="geometry" />
        </mxCell>
        <mxCell id="4fwQTI38E1IYwodKenYu-1" value="" style="edgeStyle=orthogonalEdgeStyle;rounded=0;orthogonalLoop=1;jettySize=auto;html=1;" parent="WIyWlLk6GJQsqaUBKTNV-1" source="RUBS9IUcs-Wi7rJqknGV-3" target="4fwQTI38E1IYwodKenYu-0" edge="1">
          <mxGeometry relative="1" as="geometry" />
        </mxCell>
        <mxCell id="RUBS9IUcs-Wi7rJqknGV-3" value="&lt;div style=&quot;text-align: left;&quot;&gt;&lt;span style=&quot;background-color: initial;&quot;&gt;user verification&lt;/span&gt;&lt;/div&gt;" style="whiteSpace=wrap;html=1;dashed=0;" parent="WIyWlLk6GJQsqaUBKTNV-1" vertex="1">
          <mxGeometry x="24" y="111" width="120" height="60" as="geometry" />
        </mxCell>
        <mxCell id="RUBS9IUcs-Wi7rJqknGV-20" value="" style="edgeStyle=orthogonalEdgeStyle;rounded=0;orthogonalLoop=1;jettySize=auto;html=1;" parent="WIyWlLk6GJQsqaUBKTNV-1" source="RUBS9IUcs-Wi7rJqknGV-7" target="RUBS9IUcs-Wi7rJqknGV-11" edge="1">
          <mxGeometry relative="1" as="geometry" />
        </mxCell>
        <mxCell id="RUBS9IUcs-Wi7rJqknGV-7" value="get user&#39;s request" style="whiteSpace=wrap;html=1;dashed=0;" parent="WIyWlLk6GJQsqaUBKTNV-1" vertex="1">
          <mxGeometry x="24" y="299" width="120" height="60" as="geometry" />
        </mxCell>
        <mxCell id="RUBS9IUcs-Wi7rJqknGV-15" value="" style="edgeStyle=orthogonalEdgeStyle;rounded=0;orthogonalLoop=1;jettySize=auto;html=1;" parent="WIyWlLk6GJQsqaUBKTNV-1" source="RUBS9IUcs-Wi7rJqknGV-11" target="RUBS9IUcs-Wi7rJqknGV-14" edge="1">
          <mxGeometry relative="1" as="geometry" />
        </mxCell>
        <mxCell id="RUBS9IUcs-Wi7rJqknGV-29" value="Yes" style="edgeLabel;html=1;align=center;verticalAlign=middle;resizable=0;points=[];" parent="RUBS9IUcs-Wi7rJqknGV-15" vertex="1" connectable="0">
          <mxGeometry x="-0.1517" y="2" relative="1" as="geometry">
            <mxPoint as="offset" />
          </mxGeometry>
        </mxCell>
        <mxCell id="RUBS9IUcs-Wi7rJqknGV-36" value="" style="edgeStyle=orthogonalEdgeStyle;rounded=0;orthogonalLoop=1;jettySize=auto;html=1;" parent="WIyWlLk6GJQsqaUBKTNV-1" source="RUBS9IUcs-Wi7rJqknGV-11" target="RUBS9IUcs-Wi7rJqknGV-35" edge="1">
          <mxGeometry relative="1" as="geometry" />
        </mxCell>
        <mxCell id="RUBS9IUcs-Wi7rJqknGV-39" value="No" style="edgeLabel;html=1;align=center;verticalAlign=middle;resizable=0;points=[];" parent="RUBS9IUcs-Wi7rJqknGV-36" vertex="1" connectable="0">
          <mxGeometry x="-0.092" y="3" relative="1" as="geometry">
            <mxPoint x="1" as="offset" />
          </mxGeometry>
        </mxCell>
        <mxCell id="RUBS9IUcs-Wi7rJqknGV-11" value="&lt;font style=&quot;font-size: 12px;&quot;&gt;User wants&amp;nbsp;&lt;/font&gt;&lt;span style=&quot;background-color: initial;&quot;&gt;to&lt;/span&gt;&lt;div&gt;&lt;div&gt;&lt;font style=&quot;font-size: 12px;&quot;&gt;&amp;nbsp;get list of&amp;nbsp;&lt;/font&gt;&lt;/div&gt;&lt;div&gt;&lt;font style=&quot;font-size: 12px;&quot;&gt;devices&lt;/font&gt;&lt;/div&gt;&lt;/div&gt;" style="rhombus;whiteSpace=wrap;html=1;dashed=0;" parent="WIyWlLk6GJQsqaUBKTNV-1" vertex="1">
          <mxGeometry x="13" y="409" width="140.5" height="120" as="geometry" />
        </mxCell>
        <mxCell id="RUBS9IUcs-Wi7rJqknGV-22" value="" style="edgeStyle=orthogonalEdgeStyle;rounded=0;orthogonalLoop=1;jettySize=auto;html=1;" parent="WIyWlLk6GJQsqaUBKTNV-1" source="RUBS9IUcs-Wi7rJqknGV-14" target="RUBS9IUcs-Wi7rJqknGV-21" edge="1">
          <mxGeometry relative="1" as="geometry" />
        </mxCell>
        <mxCell id="RUBS9IUcs-Wi7rJqknGV-14" value="Return list of devices" style="whiteSpace=wrap;html=1;dashed=0;" parent="WIyWlLk6GJQsqaUBKTNV-1" vertex="1">
          <mxGeometry x="23.25" y="599" width="120" height="60" as="geometry" />
        </mxCell>
        <mxCell id="RUBS9IUcs-Wi7rJqknGV-21" value="End" style="ellipse;whiteSpace=wrap;html=1;fillStyle=auto;perimeterSpacing=0;" parent="WIyWlLk6GJQsqaUBKTNV-1" vertex="1">
          <mxGeometry x="44" y="729" width="80" height="80" as="geometry" />
        </mxCell>
        <mxCell id="RUBS9IUcs-Wi7rJqknGV-59" value="" style="edgeStyle=orthogonalEdgeStyle;rounded=0;orthogonalLoop=1;jettySize=auto;html=1;" parent="WIyWlLk6GJQsqaUBKTNV-1" source="RUBS9IUcs-Wi7rJqknGV-35" target="RUBS9IUcs-Wi7rJqknGV-58" edge="1">
          <mxGeometry relative="1" as="geometry" />
        </mxCell>
        <mxCell id="RUBS9IUcs-Wi7rJqknGV-60" value="Yes" style="edgeLabel;html=1;align=center;verticalAlign=middle;resizable=0;points=[];" parent="RUBS9IUcs-Wi7rJqknGV-59" vertex="1" connectable="0">
          <mxGeometry x="0.0779" y="3" relative="1" as="geometry">
            <mxPoint x="-3" y="-8" as="offset" />
          </mxGeometry>
        </mxCell>
        <mxCell id="RUBS9IUcs-Wi7rJqknGV-104" value="" style="edgeStyle=orthogonalEdgeStyle;rounded=0;orthogonalLoop=1;jettySize=auto;html=1;" parent="WIyWlLk6GJQsqaUBKTNV-1" source="RUBS9IUcs-Wi7rJqknGV-35" target="RUBS9IUcs-Wi7rJqknGV-103" edge="1">
          <mxGeometry relative="1" as="geometry" />
        </mxCell>
        <mxCell id="RUBS9IUcs-Wi7rJqknGV-105" value="No" style="edgeLabel;html=1;align=center;verticalAlign=middle;resizable=0;points=[];" parent="RUBS9IUcs-Wi7rJqknGV-104" vertex="1" connectable="0">
          <mxGeometry x="-0.2455" y="1" relative="1" as="geometry">
            <mxPoint as="offset" />
          </mxGeometry>
        </mxCell>
        <mxCell id="RUBS9IUcs-Wi7rJqknGV-35" value="&lt;font style=&quot;font-size: 12px;&quot;&gt;User wants&amp;nbsp;&lt;/font&gt;&lt;span style=&quot;background-color: initial;&quot;&gt;to&lt;/span&gt;&lt;div&gt;&lt;div&gt;&lt;font style=&quot;font-size: 12px;&quot;&gt;&amp;nbsp;get detail about specific device&lt;/font&gt;&lt;/div&gt;&lt;/div&gt;" style="rhombus;whiteSpace=wrap;html=1;dashed=0;" parent="WIyWlLk6GJQsqaUBKTNV-1" vertex="1">
          <mxGeometry x="233.5" y="409" width="140.5" height="120" as="geometry" />
        </mxCell>
        <mxCell id="RUBS9IUcs-Wi7rJqknGV-42" style="edgeStyle=orthogonalEdgeStyle;rounded=0;orthogonalLoop=1;jettySize=auto;html=1;entryX=1;entryY=0.5;entryDx=0;entryDy=0;" parent="WIyWlLk6GJQsqaUBKTNV-1" source="RUBS9IUcs-Wi7rJqknGV-40" target="RUBS9IUcs-Wi7rJqknGV-21" edge="1">
          <mxGeometry relative="1" as="geometry">
            <Array as="points">
              <mxPoint x="304.25" y="769" />
            </Array>
          </mxGeometry>
        </mxCell>
        <mxCell id="RUBS9IUcs-Wi7rJqknGV-40" value="Return device&#39;s data" style="whiteSpace=wrap;html=1;dashed=0;" parent="WIyWlLk6GJQsqaUBKTNV-1" vertex="1">
          <mxGeometry x="243.75" y="679" width="120" height="60" as="geometry" />
        </mxCell>
        <mxCell id="RUBS9IUcs-Wi7rJqknGV-61" value="" style="edgeStyle=orthogonalEdgeStyle;rounded=0;orthogonalLoop=1;jettySize=auto;html=1;" parent="WIyWlLk6GJQsqaUBKTNV-1" source="RUBS9IUcs-Wi7rJqknGV-58" target="RUBS9IUcs-Wi7rJqknGV-40" edge="1">
          <mxGeometry relative="1" as="geometry" />
        </mxCell>
        <mxCell id="RUBS9IUcs-Wi7rJqknGV-58" value="Query in database to find blog" style="whiteSpace=wrap;html=1;dashed=0;" parent="WIyWlLk6GJQsqaUBKTNV-1" vertex="1">
          <mxGeometry x="243.75" y="599" width="120" height="60" as="geometry" />
        </mxCell>
        <mxCell id="RUBS9IUcs-Wi7rJqknGV-109" value="" style="edgeStyle=orthogonalEdgeStyle;rounded=0;orthogonalLoop=1;jettySize=auto;html=1;" parent="WIyWlLk6GJQsqaUBKTNV-1" source="RUBS9IUcs-Wi7rJqknGV-103" target="RUBS9IUcs-Wi7rJqknGV-108" edge="1">
          <mxGeometry relative="1" as="geometry" />
        </mxCell>
        <mxCell id="RUBS9IUcs-Wi7rJqknGV-111" value="Yes" style="edgeLabel;html=1;align=center;verticalAlign=middle;resizable=0;points=[];" parent="RUBS9IUcs-Wi7rJqknGV-109" vertex="1" connectable="0">
          <mxGeometry x="-0.0895" y="-2" relative="1" as="geometry">
            <mxPoint as="offset" />
          </mxGeometry>
        </mxCell>
        <mxCell id="RUBS9IUcs-Wi7rJqknGV-113" value="" style="edgeStyle=orthogonalEdgeStyle;rounded=0;orthogonalLoop=1;jettySize=auto;html=1;" parent="WIyWlLk6GJQsqaUBKTNV-1" source="RUBS9IUcs-Wi7rJqknGV-103" target="RUBS9IUcs-Wi7rJqknGV-112" edge="1">
          <mxGeometry relative="1" as="geometry" />
        </mxCell>
        <mxCell id="RUBS9IUcs-Wi7rJqknGV-120" value="No" style="edgeLabel;html=1;align=center;verticalAlign=middle;resizable=0;points=[];" parent="RUBS9IUcs-Wi7rJqknGV-113" vertex="1" connectable="0">
          <mxGeometry x="-0.1661" y="1" relative="1" as="geometry">
            <mxPoint as="offset" />
          </mxGeometry>
        </mxCell>
        <mxCell id="RUBS9IUcs-Wi7rJqknGV-103" value="&lt;font style=&quot;font-size: 12px;&quot;&gt;User wants&amp;nbsp;&lt;/font&gt;&lt;span style=&quot;background-color: initial;&quot;&gt;to&lt;/span&gt;&lt;div&gt;&lt;div&gt;&lt;font style=&quot;font-size: 12px;&quot;&gt;&amp;nbsp;get list of reviews&lt;/font&gt;&lt;/div&gt;&lt;/div&gt;" style="rhombus;whiteSpace=wrap;html=1;dashed=0;" parent="WIyWlLk6GJQsqaUBKTNV-1" vertex="1">
          <mxGeometry x="454" y="409" width="140.5" height="120" as="geometry" />
        </mxCell>
        <mxCell id="RUBS9IUcs-Wi7rJqknGV-110" style="edgeStyle=orthogonalEdgeStyle;rounded=0;orthogonalLoop=1;jettySize=auto;html=1;entryX=1;entryY=0.5;entryDx=0;entryDy=0;" parent="WIyWlLk6GJQsqaUBKTNV-1" source="RUBS9IUcs-Wi7rJqknGV-108" target="RUBS9IUcs-Wi7rJqknGV-21" edge="1">
          <mxGeometry relative="1" as="geometry">
            <Array as="points">
              <mxPoint x="524" y="769" />
            </Array>
          </mxGeometry>
        </mxCell>
        <mxCell id="RUBS9IUcs-Wi7rJqknGV-108" value="Return list of reviews" style="whiteSpace=wrap;html=1;dashed=0;" parent="WIyWlLk6GJQsqaUBKTNV-1" vertex="1">
          <mxGeometry x="464.25" y="599" width="120" height="60" as="geometry" />
        </mxCell>
        <mxCell id="RUBS9IUcs-Wi7rJqknGV-115" value="" style="edgeStyle=orthogonalEdgeStyle;rounded=0;orthogonalLoop=1;jettySize=auto;html=1;" parent="WIyWlLk6GJQsqaUBKTNV-1" source="RUBS9IUcs-Wi7rJqknGV-112" target="RUBS9IUcs-Wi7rJqknGV-114" edge="1">
          <mxGeometry relative="1" as="geometry" />
        </mxCell>
        <mxCell id="RUBS9IUcs-Wi7rJqknGV-116" value="Yes" style="edgeLabel;html=1;align=center;verticalAlign=middle;resizable=0;points=[];" parent="RUBS9IUcs-Wi7rJqknGV-115" vertex="1" connectable="0">
          <mxGeometry x="-0.126" y="3" relative="1" as="geometry">
            <mxPoint x="-3" as="offset" />
          </mxGeometry>
        </mxCell>
        <mxCell id="BKmWenFuKRzlJbGweNQv-1" value="" style="edgeStyle=orthogonalEdgeStyle;rounded=0;orthogonalLoop=1;jettySize=auto;html=1;" edge="1" parent="WIyWlLk6GJQsqaUBKTNV-1" source="RUBS9IUcs-Wi7rJqknGV-112" target="BKmWenFuKRzlJbGweNQv-0">
          <mxGeometry relative="1" as="geometry" />
        </mxCell>
        <mxCell id="BKmWenFuKRzlJbGweNQv-2" value="No" style="edgeLabel;html=1;align=center;verticalAlign=middle;resizable=0;points=[];" vertex="1" connectable="0" parent="BKmWenFuKRzlJbGweNQv-1">
          <mxGeometry x="-0.085" relative="1" as="geometry">
            <mxPoint as="offset" />
          </mxGeometry>
        </mxCell>
        <mxCell id="RUBS9IUcs-Wi7rJqknGV-112" value="&lt;font style=&quot;font-size: 12px;&quot;&gt;User wants&amp;nbsp;&lt;/font&gt;&lt;span style=&quot;background-color: initial;&quot;&gt;to&lt;/span&gt;&lt;div&gt;&lt;div&gt;&lt;font style=&quot;font-size: 12px;&quot;&gt;&amp;nbsp;read specific review&lt;/font&gt;&lt;/div&gt;&lt;/div&gt;" style="rhombus;whiteSpace=wrap;html=1;dashed=0;" parent="WIyWlLk6GJQsqaUBKTNV-1" vertex="1">
          <mxGeometry x="674.5" y="409" width="140.5" height="120" as="geometry" />
        </mxCell>
        <mxCell id="RUBS9IUcs-Wi7rJqknGV-118" value="" style="edgeStyle=orthogonalEdgeStyle;rounded=0;orthogonalLoop=1;jettySize=auto;html=1;" parent="WIyWlLk6GJQsqaUBKTNV-1" source="RUBS9IUcs-Wi7rJqknGV-114" target="RUBS9IUcs-Wi7rJqknGV-117" edge="1">
          <mxGeometry relative="1" as="geometry" />
        </mxCell>
        <mxCell id="RUBS9IUcs-Wi7rJqknGV-114" value="Query in database to find review" style="whiteSpace=wrap;html=1;dashed=0;" parent="WIyWlLk6GJQsqaUBKTNV-1" vertex="1">
          <mxGeometry x="684.75" y="599" width="120" height="60" as="geometry" />
        </mxCell>
        <mxCell id="RUBS9IUcs-Wi7rJqknGV-119" style="edgeStyle=orthogonalEdgeStyle;rounded=0;orthogonalLoop=1;jettySize=auto;html=1;entryX=1;entryY=0.5;entryDx=0;entryDy=0;" parent="WIyWlLk6GJQsqaUBKTNV-1" source="RUBS9IUcs-Wi7rJqknGV-117" target="RUBS9IUcs-Wi7rJqknGV-21" edge="1">
          <mxGeometry relative="1" as="geometry">
            <Array as="points">
              <mxPoint x="745" y="769" />
            </Array>
          </mxGeometry>
        </mxCell>
        <mxCell id="RUBS9IUcs-Wi7rJqknGV-117" value="Return review&#39;s data" style="whiteSpace=wrap;html=1;dashed=0;" parent="WIyWlLk6GJQsqaUBKTNV-1" vertex="1">
          <mxGeometry x="684.75" y="679" width="120" height="60" as="geometry" />
        </mxCell>
        <mxCell id="4fwQTI38E1IYwodKenYu-2" value="" style="edgeStyle=orthogonalEdgeStyle;rounded=0;orthogonalLoop=1;jettySize=auto;html=1;" parent="WIyWlLk6GJQsqaUBKTNV-1" source="4fwQTI38E1IYwodKenYu-0" target="RUBS9IUcs-Wi7rJqknGV-7" edge="1">
          <mxGeometry relative="1" as="geometry" />
        </mxCell>
        <mxCell id="4fwQTI38E1IYwodKenYu-0" value="show home page" style="rounded=0;whiteSpace=wrap;html=1;" parent="WIyWlLk6GJQsqaUBKTNV-1" vertex="1">
          <mxGeometry x="24" y="210" width="120" height="60" as="geometry" />
        </mxCell>
        <mxCell id="BKmWenFuKRzlJbGweNQv-6" value="" style="edgeStyle=orthogonalEdgeStyle;rounded=0;orthogonalLoop=1;jettySize=auto;html=1;" edge="1" parent="WIyWlLk6GJQsqaUBKTNV-1" source="BKmWenFuKRzlJbGweNQv-0" target="BKmWenFuKRzlJbGweNQv-5">
          <mxGeometry relative="1" as="geometry" />
        </mxCell>
        <mxCell id="BKmWenFuKRzlJbGweNQv-7" value="Yes" style="edgeLabel;html=1;align=center;verticalAlign=middle;resizable=0;points=[];" vertex="1" connectable="0" parent="BKmWenFuKRzlJbGweNQv-6">
          <mxGeometry x="-0.17" y="-1" relative="1" as="geometry">
            <mxPoint x="1" as="offset" />
          </mxGeometry>
        </mxCell>
        <mxCell id="BKmWenFuKRzlJbGweNQv-56" value="" style="edgeStyle=orthogonalEdgeStyle;rounded=0;orthogonalLoop=1;jettySize=auto;html=1;" edge="1" parent="WIyWlLk6GJQsqaUBKTNV-1" source="BKmWenFuKRzlJbGweNQv-0" target="BKmWenFuKRzlJbGweNQv-55">
          <mxGeometry relative="1" as="geometry">
            <Array as="points">
              <mxPoint x="1070" y="469" />
              <mxPoint x="1070" y="239" />
            </Array>
          </mxGeometry>
        </mxCell>
        <mxCell id="BKmWenFuKRzlJbGweNQv-63" value="No" style="edgeLabel;html=1;align=center;verticalAlign=middle;resizable=0;points=[];" vertex="1" connectable="0" parent="BKmWenFuKRzlJbGweNQv-56">
          <mxGeometry x="-0.2875" y="3" relative="1" as="geometry">
            <mxPoint as="offset" />
          </mxGeometry>
        </mxCell>
        <mxCell id="BKmWenFuKRzlJbGweNQv-0" value="&lt;font style=&quot;font-size: 12px;&quot;&gt;User wants&amp;nbsp;&lt;/font&gt;&lt;span style=&quot;background-color: initial;&quot;&gt;to&lt;/span&gt;&lt;div&gt;&lt;div&gt;&lt;font style=&quot;font-size: 12px;&quot;&gt;&amp;nbsp;compare device&lt;/font&gt;&lt;/div&gt;&lt;/div&gt;" style="rhombus;whiteSpace=wrap;html=1;dashed=0;" vertex="1" parent="WIyWlLk6GJQsqaUBKTNV-1">
          <mxGeometry x="895" y="409" width="140.5" height="120" as="geometry" />
        </mxCell>
        <mxCell id="BKmWenFuKRzlJbGweNQv-9" value="" style="edgeStyle=orthogonalEdgeStyle;rounded=0;orthogonalLoop=1;jettySize=auto;html=1;" edge="1" parent="WIyWlLk6GJQsqaUBKTNV-1" source="BKmWenFuKRzlJbGweNQv-5" target="BKmWenFuKRzlJbGweNQv-8">
          <mxGeometry relative="1" as="geometry" />
        </mxCell>
        <mxCell id="BKmWenFuKRzlJbGweNQv-10" value="Yes" style="edgeLabel;html=1;align=center;verticalAlign=middle;resizable=0;points=[];" vertex="1" connectable="0" parent="BKmWenFuKRzlJbGweNQv-9">
          <mxGeometry x="-0.325" y="-1" relative="1" as="geometry">
            <mxPoint as="offset" />
          </mxGeometry>
        </mxCell>
        <mxCell id="BKmWenFuKRzlJbGweNQv-15" value="" style="edgeStyle=orthogonalEdgeStyle;rounded=0;orthogonalLoop=1;jettySize=auto;html=1;" edge="1" parent="WIyWlLk6GJQsqaUBKTNV-1" source="BKmWenFuKRzlJbGweNQv-5" target="BKmWenFuKRzlJbGweNQv-14">
          <mxGeometry relative="1" as="geometry" />
        </mxCell>
        <mxCell id="BKmWenFuKRzlJbGweNQv-16" value="No" style="edgeLabel;html=1;align=center;verticalAlign=middle;resizable=0;points=[];" vertex="1" connectable="0" parent="BKmWenFuKRzlJbGweNQv-15">
          <mxGeometry x="-0.2125" y="-1" relative="1" as="geometry">
            <mxPoint as="offset" />
          </mxGeometry>
        </mxCell>
        <mxCell id="BKmWenFuKRzlJbGweNQv-5" value="Has permission&amp;nbsp;" style="rhombus;whiteSpace=wrap;html=1;dashed=0;" vertex="1" parent="WIyWlLk6GJQsqaUBKTNV-1">
          <mxGeometry x="895" y="569" width="140.5" height="120" as="geometry" />
        </mxCell>
        <mxCell id="BKmWenFuKRzlJbGweNQv-12" value="" style="edgeStyle=orthogonalEdgeStyle;rounded=0;orthogonalLoop=1;jettySize=auto;html=1;" edge="1" parent="WIyWlLk6GJQsqaUBKTNV-1" source="BKmWenFuKRzlJbGweNQv-8" target="BKmWenFuKRzlJbGweNQv-11">
          <mxGeometry relative="1" as="geometry" />
        </mxCell>
        <mxCell id="BKmWenFuKRzlJbGweNQv-8" value="Compare devices" style="whiteSpace=wrap;html=1;dashed=0;" vertex="1" parent="WIyWlLk6GJQsqaUBKTNV-1">
          <mxGeometry x="905.25" y="729" width="120" height="60" as="geometry" />
        </mxCell>
        <mxCell id="BKmWenFuKRzlJbGweNQv-13" style="edgeStyle=orthogonalEdgeStyle;rounded=0;orthogonalLoop=1;jettySize=auto;html=1;entryX=1;entryY=0.5;entryDx=0;entryDy=0;" edge="1" parent="WIyWlLk6GJQsqaUBKTNV-1" source="BKmWenFuKRzlJbGweNQv-11" target="RUBS9IUcs-Wi7rJqknGV-21">
          <mxGeometry relative="1" as="geometry">
            <Array as="points">
              <mxPoint x="530" y="899" />
              <mxPoint x="530" y="769" />
            </Array>
          </mxGeometry>
        </mxCell>
        <mxCell id="BKmWenFuKRzlJbGweNQv-11" value="Return devices data, and result of compare" style="whiteSpace=wrap;html=1;dashed=0;" vertex="1" parent="WIyWlLk6GJQsqaUBKTNV-1">
          <mxGeometry x="905.25" y="869" width="120" height="60" as="geometry" />
        </mxCell>
        <mxCell id="BKmWenFuKRzlJbGweNQv-18" value="" style="edgeStyle=orthogonalEdgeStyle;rounded=0;orthogonalLoop=1;jettySize=auto;html=1;" edge="1" parent="WIyWlLk6GJQsqaUBKTNV-1" source="BKmWenFuKRzlJbGweNQv-14" target="BKmWenFuKRzlJbGweNQv-17">
          <mxGeometry relative="1" as="geometry" />
        </mxCell>
        <mxCell id="BKmWenFuKRzlJbGweNQv-19" value="Yes" style="edgeLabel;html=1;align=center;verticalAlign=middle;resizable=0;points=[];" vertex="1" connectable="0" parent="BKmWenFuKRzlJbGweNQv-18">
          <mxGeometry x="-0.2632" relative="1" as="geometry">
            <mxPoint as="offset" />
          </mxGeometry>
        </mxCell>
        <mxCell id="BKmWenFuKRzlJbGweNQv-32" value="" style="edgeStyle=orthogonalEdgeStyle;rounded=0;orthogonalLoop=1;jettySize=auto;html=1;entryX=0.5;entryY=1;entryDx=0;entryDy=0;fillColor=#dae8fc;strokeColor=#6c8ebf;" edge="1" parent="WIyWlLk6GJQsqaUBKTNV-1" source="BKmWenFuKRzlJbGweNQv-14" target="RUBS9IUcs-Wi7rJqknGV-21">
          <mxGeometry relative="1" as="geometry">
            <mxPoint x="1185.75" y="769" as="targetPoint" />
            <Array as="points">
              <mxPoint x="1186" y="990" />
              <mxPoint x="84" y="990" />
            </Array>
          </mxGeometry>
        </mxCell>
        <mxCell id="BKmWenFuKRzlJbGweNQv-33" value="No" style="edgeLabel;html=1;align=center;verticalAlign=middle;resizable=0;points=[];" vertex="1" connectable="0" parent="BKmWenFuKRzlJbGweNQv-32">
          <mxGeometry x="-0.3067" y="-1" relative="1" as="geometry">
            <mxPoint as="offset" />
          </mxGeometry>
        </mxCell>
        <mxCell id="BKmWenFuKRzlJbGweNQv-14" value="user wants to login" style="rhombus;whiteSpace=wrap;html=1;dashed=0;" vertex="1" parent="WIyWlLk6GJQsqaUBKTNV-1">
          <mxGeometry x="1115.5" y="569" width="140.5" height="120" as="geometry" />
        </mxCell>
        <mxCell id="BKmWenFuKRzlJbGweNQv-23" value="" style="edgeStyle=orthogonalEdgeStyle;rounded=0;orthogonalLoop=1;jettySize=auto;html=1;entryX=0.5;entryY=1;entryDx=0;entryDy=0;" edge="1" parent="WIyWlLk6GJQsqaUBKTNV-1" source="BKmWenFuKRzlJbGweNQv-17" target="BKmWenFuKRzlJbGweNQv-22">
          <mxGeometry relative="1" as="geometry" />
        </mxCell>
        <mxCell id="BKmWenFuKRzlJbGweNQv-17" value="Redirect to login page" style="whiteSpace=wrap;html=1;dashed=0;" vertex="1" parent="WIyWlLk6GJQsqaUBKTNV-1">
          <mxGeometry x="2130.25" y="599" width="120" height="60" as="geometry" />
        </mxCell>
        <mxCell id="BKmWenFuKRzlJbGweNQv-25" value="" style="edgeStyle=orthogonalEdgeStyle;rounded=0;orthogonalLoop=1;jettySize=auto;html=1;" edge="1" parent="WIyWlLk6GJQsqaUBKTNV-1" source="BKmWenFuKRzlJbGweNQv-22" target="BKmWenFuKRzlJbGweNQv-24">
          <mxGeometry relative="1" as="geometry" />
        </mxCell>
        <mxCell id="BKmWenFuKRzlJbGweNQv-26" value="Login" style="edgeLabel;html=1;align=center;verticalAlign=middle;resizable=0;points=[];" vertex="1" connectable="0" parent="BKmWenFuKRzlJbGweNQv-25">
          <mxGeometry x="-0.1853" y="1" relative="1" as="geometry">
            <mxPoint y="1" as="offset" />
          </mxGeometry>
        </mxCell>
        <mxCell id="BKmWenFuKRzlJbGweNQv-37" value="" style="edgeStyle=orthogonalEdgeStyle;rounded=0;orthogonalLoop=1;jettySize=auto;html=1;" edge="1" parent="WIyWlLk6GJQsqaUBKTNV-1" source="BKmWenFuKRzlJbGweNQv-22" target="BKmWenFuKRzlJbGweNQv-36">
          <mxGeometry relative="1" as="geometry" />
        </mxCell>
        <mxCell id="BKmWenFuKRzlJbGweNQv-38" value="Signup" style="edgeLabel;html=1;align=center;verticalAlign=middle;resizable=0;points=[];" vertex="1" connectable="0" parent="BKmWenFuKRzlJbGweNQv-37">
          <mxGeometry x="-0.2207" y="-1" relative="1" as="geometry">
            <mxPoint as="offset" />
          </mxGeometry>
        </mxCell>
        <mxCell id="BKmWenFuKRzlJbGweNQv-22" value="user wants to login or signup" style="rhombus;whiteSpace=wrap;html=1;dashed=0;" vertex="1" parent="WIyWlLk6GJQsqaUBKTNV-1">
          <mxGeometry x="2120" y="409" width="140.5" height="120" as="geometry" />
        </mxCell>
        <mxCell id="BKmWenFuKRzlJbGweNQv-35" value="" style="edgeStyle=orthogonalEdgeStyle;rounded=0;orthogonalLoop=1;jettySize=auto;html=1;" edge="1" parent="WIyWlLk6GJQsqaUBKTNV-1" source="BKmWenFuKRzlJbGweNQv-24" target="BKmWenFuKRzlJbGweNQv-34">
          <mxGeometry relative="1" as="geometry" />
        </mxCell>
        <mxCell id="BKmWenFuKRzlJbGweNQv-24" value="Get user&#39;s email, or username , and password" style="whiteSpace=wrap;html=1;dashed=0;" vertex="1" parent="WIyWlLk6GJQsqaUBKTNV-1">
          <mxGeometry x="2130.25" y="300" width="120" height="60" as="geometry" />
        </mxCell>
        <mxCell id="BKmWenFuKRzlJbGweNQv-29" style="edgeStyle=orthogonalEdgeStyle;rounded=0;orthogonalLoop=1;jettySize=auto;html=1;entryX=1;entryY=0.5;entryDx=0;entryDy=0;" edge="1" parent="WIyWlLk6GJQsqaUBKTNV-1" source="BKmWenFuKRzlJbGweNQv-27" target="4fwQTI38E1IYwodKenYu-0">
          <mxGeometry relative="1" as="geometry" />
        </mxCell>
        <mxCell id="BKmWenFuKRzlJbGweNQv-27" value="login user" style="whiteSpace=wrap;html=1;dashed=0;" vertex="1" parent="WIyWlLk6GJQsqaUBKTNV-1">
          <mxGeometry x="630" y="81" width="120" height="60" as="geometry" />
        </mxCell>
        <mxCell id="BKmWenFuKRzlJbGweNQv-52" style="edgeStyle=orthogonalEdgeStyle;rounded=0;orthogonalLoop=1;jettySize=auto;html=1;entryX=0.5;entryY=1;entryDx=0;entryDy=0;" edge="1" parent="WIyWlLk6GJQsqaUBKTNV-1" source="BKmWenFuKRzlJbGweNQv-34" target="BKmWenFuKRzlJbGweNQv-44">
          <mxGeometry relative="1" as="geometry">
            <Array as="points">
              <mxPoint x="2284" y="250" />
            </Array>
          </mxGeometry>
        </mxCell>
        <mxCell id="BKmWenFuKRzlJbGweNQv-34" value="Verify email and password" style="whiteSpace=wrap;html=1;dashed=0;" vertex="1" parent="WIyWlLk6GJQsqaUBKTNV-1">
          <mxGeometry x="2130.25" y="210" width="120" height="60" as="geometry" />
        </mxCell>
        <mxCell id="BKmWenFuKRzlJbGweNQv-40" value="" style="edgeStyle=orthogonalEdgeStyle;rounded=0;orthogonalLoop=1;jettySize=auto;html=1;" edge="1" parent="WIyWlLk6GJQsqaUBKTNV-1" source="BKmWenFuKRzlJbGweNQv-36" target="BKmWenFuKRzlJbGweNQv-39">
          <mxGeometry relative="1" as="geometry" />
        </mxCell>
        <mxCell id="BKmWenFuKRzlJbGweNQv-36" value="Get email and password" style="whiteSpace=wrap;html=1;dashed=0;" vertex="1" parent="WIyWlLk6GJQsqaUBKTNV-1">
          <mxGeometry x="2314" y="299" width="120" height="60" as="geometry" />
        </mxCell>
        <mxCell id="BKmWenFuKRzlJbGweNQv-51" style="edgeStyle=orthogonalEdgeStyle;rounded=0;orthogonalLoop=1;jettySize=auto;html=1;entryX=0.5;entryY=1;entryDx=0;entryDy=0;" edge="1" parent="WIyWlLk6GJQsqaUBKTNV-1" source="BKmWenFuKRzlJbGweNQv-39" target="BKmWenFuKRzlJbGweNQv-44">
          <mxGeometry relative="1" as="geometry">
            <mxPoint x="2284" y="180" as="targetPoint" />
            <Array as="points">
              <mxPoint x="2284" y="250" />
            </Array>
          </mxGeometry>
        </mxCell>
        <mxCell id="BKmWenFuKRzlJbGweNQv-39" value="Check data&amp;nbsp;" style="whiteSpace=wrap;html=1;dashed=0;" vertex="1" parent="WIyWlLk6GJQsqaUBKTNV-1">
          <mxGeometry x="2314" y="210" width="120" height="60" as="geometry" />
        </mxCell>
        <mxCell id="BKmWenFuKRzlJbGweNQv-47" style="edgeStyle=orthogonalEdgeStyle;rounded=0;orthogonalLoop=1;jettySize=auto;html=1;entryX=1;entryY=0.5;entryDx=0;entryDy=0;" edge="1" parent="WIyWlLk6GJQsqaUBKTNV-1" source="BKmWenFuKRzlJbGweNQv-44" target="BKmWenFuKRzlJbGweNQv-27">
          <mxGeometry relative="1" as="geometry" />
        </mxCell>
        <mxCell id="BKmWenFuKRzlJbGweNQv-48" value="Yes" style="edgeLabel;html=1;align=center;verticalAlign=middle;resizable=0;points=[];" vertex="1" connectable="0" parent="BKmWenFuKRzlJbGweNQv-47">
          <mxGeometry x="-0.0005" y="3" relative="1" as="geometry">
            <mxPoint as="offset" />
          </mxGeometry>
        </mxCell>
        <mxCell id="BKmWenFuKRzlJbGweNQv-53" style="edgeStyle=orthogonalEdgeStyle;rounded=0;orthogonalLoop=1;jettySize=auto;html=1;entryX=1;entryY=0.5;entryDx=0;entryDy=0;" edge="1" parent="WIyWlLk6GJQsqaUBKTNV-1" source="BKmWenFuKRzlJbGweNQv-44" target="BKmWenFuKRzlJbGweNQv-17">
          <mxGeometry relative="1" as="geometry">
            <Array as="points">
              <mxPoint x="2442" y="111" />
              <mxPoint x="2442" y="629" />
            </Array>
          </mxGeometry>
        </mxCell>
        <mxCell id="BKmWenFuKRzlJbGweNQv-54" value="No" style="edgeLabel;html=1;align=center;verticalAlign=middle;resizable=0;points=[];" vertex="1" connectable="0" parent="BKmWenFuKRzlJbGweNQv-53">
          <mxGeometry x="-0.2107" y="3" relative="1" as="geometry">
            <mxPoint as="offset" />
          </mxGeometry>
        </mxCell>
        <mxCell id="BKmWenFuKRzlJbGweNQv-44" value="Data is valid" style="rhombus;whiteSpace=wrap;html=1;dashed=0;" vertex="1" parent="WIyWlLk6GJQsqaUBKTNV-1">
          <mxGeometry x="2214" y="51" width="140.5" height="120" as="geometry" />
        </mxCell>
        <mxCell id="BKmWenFuKRzlJbGweNQv-67" value="" style="edgeStyle=orthogonalEdgeStyle;rounded=0;orthogonalLoop=1;jettySize=auto;html=1;" edge="1" parent="WIyWlLk6GJQsqaUBKTNV-1" source="BKmWenFuKRzlJbGweNQv-55" target="BKmWenFuKRzlJbGweNQv-66">
          <mxGeometry relative="1" as="geometry" />
        </mxCell>
        <mxCell id="BKmWenFuKRzlJbGweNQv-68" value="Yes" style="edgeLabel;html=1;align=center;verticalAlign=middle;resizable=0;points=[];" vertex="1" connectable="0" parent="BKmWenFuKRzlJbGweNQv-67">
          <mxGeometry x="-0.0789" relative="1" as="geometry">
            <mxPoint y="-1" as="offset" />
          </mxGeometry>
        </mxCell>
        <mxCell id="BKmWenFuKRzlJbGweNQv-78" value="" style="edgeStyle=orthogonalEdgeStyle;rounded=0;orthogonalLoop=1;jettySize=auto;html=1;" edge="1" parent="WIyWlLk6GJQsqaUBKTNV-1" source="BKmWenFuKRzlJbGweNQv-55" target="BKmWenFuKRzlJbGweNQv-77">
          <mxGeometry relative="1" as="geometry" />
        </mxCell>
        <mxCell id="BKmWenFuKRzlJbGweNQv-79" value="No" style="edgeLabel;html=1;align=center;verticalAlign=middle;resizable=0;points=[];" vertex="1" connectable="0" parent="BKmWenFuKRzlJbGweNQv-78">
          <mxGeometry x="-0.36" relative="1" as="geometry">
            <mxPoint as="offset" />
          </mxGeometry>
        </mxCell>
        <mxCell id="BKmWenFuKRzlJbGweNQv-55" value="user wants to send comment, or report" style="rhombus;whiteSpace=wrap;html=1;dashed=0;" vertex="1" parent="WIyWlLk6GJQsqaUBKTNV-1">
          <mxGeometry x="1115.5" y="180" width="140.5" height="120" as="geometry" />
        </mxCell>
        <mxCell id="BKmWenFuKRzlJbGweNQv-69" style="edgeStyle=orthogonalEdgeStyle;rounded=0;orthogonalLoop=1;jettySize=auto;html=1;entryX=0.5;entryY=0;entryDx=0;entryDy=0;" edge="1" parent="WIyWlLk6GJQsqaUBKTNV-1" source="BKmWenFuKRzlJbGweNQv-66" target="BKmWenFuKRzlJbGweNQv-14">
          <mxGeometry relative="1" as="geometry" />
        </mxCell>
        <mxCell id="BKmWenFuKRzlJbGweNQv-70" value="No" style="edgeLabel;html=1;align=center;verticalAlign=middle;resizable=0;points=[];" vertex="1" connectable="0" parent="BKmWenFuKRzlJbGweNQv-69">
          <mxGeometry x="-0.2393" y="3" relative="1" as="geometry">
            <mxPoint as="offset" />
          </mxGeometry>
        </mxCell>
        <mxCell id="BKmWenFuKRzlJbGweNQv-72" value="" style="edgeStyle=orthogonalEdgeStyle;rounded=0;orthogonalLoop=1;jettySize=auto;html=1;" edge="1" parent="WIyWlLk6GJQsqaUBKTNV-1" source="BKmWenFuKRzlJbGweNQv-66" target="BKmWenFuKRzlJbGweNQv-71">
          <mxGeometry relative="1" as="geometry" />
        </mxCell>
        <mxCell id="BKmWenFuKRzlJbGweNQv-75" value="Yes" style="edgeLabel;html=1;align=center;verticalAlign=middle;resizable=0;points=[];" vertex="1" connectable="0" parent="BKmWenFuKRzlJbGweNQv-72">
          <mxGeometry x="-0.1637" y="-2" relative="1" as="geometry">
            <mxPoint as="offset" />
          </mxGeometry>
        </mxCell>
        <mxCell id="BKmWenFuKRzlJbGweNQv-66" value="Has permission" style="rhombus;whiteSpace=wrap;html=1;dashed=0;" vertex="1" parent="WIyWlLk6GJQsqaUBKTNV-1">
          <mxGeometry x="1115.5" y="379" width="140.5" height="120" as="geometry" />
        </mxCell>
        <mxCell id="BKmWenFuKRzlJbGweNQv-74" value="" style="edgeStyle=orthogonalEdgeStyle;rounded=0;orthogonalLoop=1;jettySize=auto;html=1;" edge="1" parent="WIyWlLk6GJQsqaUBKTNV-1" source="BKmWenFuKRzlJbGweNQv-71" target="BKmWenFuKRzlJbGweNQv-73">
          <mxGeometry relative="1" as="geometry" />
        </mxCell>
        <mxCell id="BKmWenFuKRzlJbGweNQv-71" value="Get comment&#39;s data" style="whiteSpace=wrap;html=1;dashed=0;" vertex="1" parent="WIyWlLk6GJQsqaUBKTNV-1">
          <mxGeometry x="1346.25" y="409" width="120" height="60" as="geometry" />
        </mxCell>
        <mxCell id="BKmWenFuKRzlJbGweNQv-76" style="edgeStyle=orthogonalEdgeStyle;rounded=0;orthogonalLoop=1;jettySize=auto;html=1;entryX=0.5;entryY=1;entryDx=0;entryDy=0;strokeWidth=1;fillColor=#dae8fc;strokeColor=#6c8ebf;" edge="1" parent="WIyWlLk6GJQsqaUBKTNV-1" source="BKmWenFuKRzlJbGweNQv-73" target="RUBS9IUcs-Wi7rJqknGV-21">
          <mxGeometry relative="1" as="geometry">
            <mxPoint x="380" y="1040" as="targetPoint" />
            <Array as="points">
              <mxPoint x="1620" y="1140" />
              <mxPoint x="84" y="1140" />
            </Array>
          </mxGeometry>
        </mxCell>
        <mxCell id="BKmWenFuKRzlJbGweNQv-73" value="Save comment in database" style="whiteSpace=wrap;html=1;dashed=0;" vertex="1" parent="WIyWlLk6GJQsqaUBKTNV-1">
          <mxGeometry x="1560" y="499" width="120" height="60" as="geometry" />
        </mxCell>
        <mxCell id="BKmWenFuKRzlJbGweNQv-91" style="edgeStyle=orthogonalEdgeStyle;rounded=0;orthogonalLoop=1;jettySize=auto;html=1;entryX=0.5;entryY=1;entryDx=0;entryDy=0;fillColor=#dae8fc;strokeColor=#6c8ebf;exitX=0.5;exitY=1;exitDx=0;exitDy=0;" edge="1" parent="WIyWlLk6GJQsqaUBKTNV-1" source="BKmWenFuKRzlJbGweNQv-114" target="RUBS9IUcs-Wi7rJqknGV-21">
          <mxGeometry relative="1" as="geometry">
            <Array as="points">
              <mxPoint x="1754" y="1140" />
              <mxPoint x="84" y="1140" />
            </Array>
          </mxGeometry>
        </mxCell>
        <mxCell id="BKmWenFuKRzlJbGweNQv-118" value="No" style="edgeLabel;html=1;align=center;verticalAlign=middle;resizable=0;points=[];" vertex="1" connectable="0" parent="BKmWenFuKRzlJbGweNQv-91">
          <mxGeometry x="-0.8867" y="-3" relative="1" as="geometry">
            <mxPoint x="-1" as="offset" />
          </mxGeometry>
        </mxCell>
        <mxCell id="BKmWenFuKRzlJbGweNQv-96" value="" style="edgeStyle=orthogonalEdgeStyle;rounded=0;orthogonalLoop=1;jettySize=auto;html=1;" edge="1" parent="WIyWlLk6GJQsqaUBKTNV-1" source="BKmWenFuKRzlJbGweNQv-77" target="BKmWenFuKRzlJbGweNQv-95">
          <mxGeometry relative="1" as="geometry" />
        </mxCell>
        <mxCell id="BKmWenFuKRzlJbGweNQv-97" value="Yes" style="edgeLabel;html=1;align=center;verticalAlign=middle;resizable=0;points=[];" vertex="1" connectable="0" parent="BKmWenFuKRzlJbGweNQv-96">
          <mxGeometry x="-0.4798" relative="1" as="geometry">
            <mxPoint x="13" as="offset" />
          </mxGeometry>
        </mxCell>
        <mxCell id="BKmWenFuKRzlJbGweNQv-77" value="user wants to manage content" style="rhombus;whiteSpace=wrap;html=1;dashed=0;" vertex="1" parent="WIyWlLk6GJQsqaUBKTNV-1">
          <mxGeometry x="1336" y="180" width="140.5" height="120" as="geometry" />
        </mxCell>
        <mxCell id="BKmWenFuKRzlJbGweNQv-99" value="" style="edgeStyle=orthogonalEdgeStyle;rounded=0;orthogonalLoop=1;jettySize=auto;html=1;" edge="1" parent="WIyWlLk6GJQsqaUBKTNV-1" source="BKmWenFuKRzlJbGweNQv-95" target="BKmWenFuKRzlJbGweNQv-98">
          <mxGeometry relative="1" as="geometry" />
        </mxCell>
        <mxCell id="BKmWenFuKRzlJbGweNQv-100" value="Yes" style="edgeLabel;html=1;align=center;verticalAlign=middle;resizable=0;points=[];" vertex="1" connectable="0" parent="BKmWenFuKRzlJbGweNQv-99">
          <mxGeometry x="-0.1123" relative="1" as="geometry">
            <mxPoint as="offset" />
          </mxGeometry>
        </mxCell>
        <mxCell id="BKmWenFuKRzlJbGweNQv-115" value="" style="edgeStyle=orthogonalEdgeStyle;rounded=0;orthogonalLoop=1;jettySize=auto;html=1;" edge="1" parent="WIyWlLk6GJQsqaUBKTNV-1" source="BKmWenFuKRzlJbGweNQv-95" target="BKmWenFuKRzlJbGweNQv-114">
          <mxGeometry relative="1" as="geometry" />
        </mxCell>
        <mxCell id="BKmWenFuKRzlJbGweNQv-119" value="No" style="edgeLabel;html=1;align=center;verticalAlign=middle;resizable=0;points=[];" vertex="1" connectable="0" parent="BKmWenFuKRzlJbGweNQv-115">
          <mxGeometry x="-0.2035" y="-1" relative="1" as="geometry">
            <mxPoint as="offset" />
          </mxGeometry>
        </mxCell>
        <mxCell id="BKmWenFuKRzlJbGweNQv-95" value="Has permission" style="rhombus;whiteSpace=wrap;html=1;dashed=0;" vertex="1" parent="WIyWlLk6GJQsqaUBKTNV-1">
          <mxGeometry x="1560" y="119" width="140.5" height="120" as="geometry" />
        </mxCell>
        <mxCell id="BKmWenFuKRzlJbGweNQv-102" value="" style="edgeStyle=orthogonalEdgeStyle;rounded=0;orthogonalLoop=1;jettySize=auto;html=1;" edge="1" parent="WIyWlLk6GJQsqaUBKTNV-1" source="BKmWenFuKRzlJbGweNQv-98" target="BKmWenFuKRzlJbGweNQv-101">
          <mxGeometry relative="1" as="geometry" />
        </mxCell>
        <mxCell id="BKmWenFuKRzlJbGweNQv-98" value="Add, update, or delete content&amp;nbsp;" style="whiteSpace=wrap;html=1;dashed=0;" vertex="1" parent="WIyWlLk6GJQsqaUBKTNV-1">
          <mxGeometry x="1861" y="149" width="120" height="60" as="geometry" />
        </mxCell>
        <mxCell id="BKmWenFuKRzlJbGweNQv-104" style="edgeStyle=orthogonalEdgeStyle;rounded=0;orthogonalLoop=1;jettySize=auto;html=1;exitX=0.5;exitY=1;exitDx=0;exitDy=0;entryX=0.5;entryY=0;entryDx=0;entryDy=0;" edge="1" parent="WIyWlLk6GJQsqaUBKTNV-1" source="BKmWenFuKRzlJbGweNQv-101" target="BKmWenFuKRzlJbGweNQv-103">
          <mxGeometry relative="1" as="geometry" />
        </mxCell>
        <mxCell id="BKmWenFuKRzlJbGweNQv-101" value="Check data by validator" style="whiteSpace=wrap;html=1;dashed=0;" vertex="1" parent="WIyWlLk6GJQsqaUBKTNV-1">
          <mxGeometry x="1861" y="259" width="120" height="60" as="geometry" />
        </mxCell>
        <mxCell id="BKmWenFuKRzlJbGweNQv-106" value="" style="edgeStyle=orthogonalEdgeStyle;rounded=0;orthogonalLoop=1;jettySize=auto;html=1;" edge="1" parent="WIyWlLk6GJQsqaUBKTNV-1" source="BKmWenFuKRzlJbGweNQv-103" target="BKmWenFuKRzlJbGweNQv-105">
          <mxGeometry relative="1" as="geometry" />
        </mxCell>
        <mxCell id="BKmWenFuKRzlJbGweNQv-107" value="No" style="edgeLabel;html=1;align=center;verticalAlign=middle;resizable=0;points=[];" vertex="1" connectable="0" parent="BKmWenFuKRzlJbGweNQv-106">
          <mxGeometry x="-0.325" y="-1" relative="1" as="geometry">
            <mxPoint as="offset" />
          </mxGeometry>
        </mxCell>
        <mxCell id="BKmWenFuKRzlJbGweNQv-109" value="" style="edgeStyle=orthogonalEdgeStyle;rounded=0;orthogonalLoop=1;jettySize=auto;html=1;" edge="1" parent="WIyWlLk6GJQsqaUBKTNV-1" source="BKmWenFuKRzlJbGweNQv-103" target="BKmWenFuKRzlJbGweNQv-108">
          <mxGeometry relative="1" as="geometry" />
        </mxCell>
        <mxCell id="BKmWenFuKRzlJbGweNQv-111" value="Yes" style="edgeLabel;html=1;align=center;verticalAlign=middle;resizable=0;points=[];" vertex="1" connectable="0" parent="BKmWenFuKRzlJbGweNQv-109">
          <mxGeometry x="-0.2946" relative="1" as="geometry">
            <mxPoint as="offset" />
          </mxGeometry>
        </mxCell>
        <mxCell id="BKmWenFuKRzlJbGweNQv-103" value="Data is valid" style="rhombus;whiteSpace=wrap;html=1;dashed=0;" vertex="1" parent="WIyWlLk6GJQsqaUBKTNV-1">
          <mxGeometry x="1850.75" y="338" width="140.5" height="120" as="geometry" />
        </mxCell>
        <mxCell id="BKmWenFuKRzlJbGweNQv-113" style="edgeStyle=orthogonalEdgeStyle;rounded=0;orthogonalLoop=1;jettySize=auto;html=1;entryX=0.5;entryY=1;entryDx=0;entryDy=0;fillColor=#dae8fc;strokeColor=#6c8ebf;" edge="1" parent="WIyWlLk6GJQsqaUBKTNV-1" source="BKmWenFuKRzlJbGweNQv-105" target="RUBS9IUcs-Wi7rJqknGV-21">
          <mxGeometry relative="1" as="geometry">
            <Array as="points">
              <mxPoint x="2070" y="1140" />
              <mxPoint x="84" y="1140" />
            </Array>
          </mxGeometry>
        </mxCell>
        <mxCell id="BKmWenFuKRzlJbGweNQv-105" value="Send response to user" style="whiteSpace=wrap;html=1;dashed=0;" vertex="1" parent="WIyWlLk6GJQsqaUBKTNV-1">
          <mxGeometry x="2010.25" y="509" width="120" height="60" as="geometry" />
        </mxCell>
        <mxCell id="BKmWenFuKRzlJbGweNQv-112" style="edgeStyle=orthogonalEdgeStyle;rounded=0;orthogonalLoop=1;jettySize=auto;html=1;entryX=0.5;entryY=1;entryDx=0;entryDy=0;fillColor=#dae8fc;strokeColor=#6c8ebf;" edge="1" parent="WIyWlLk6GJQsqaUBKTNV-1" source="BKmWenFuKRzlJbGweNQv-108" target="RUBS9IUcs-Wi7rJqknGV-21">
          <mxGeometry relative="1" as="geometry">
            <Array as="points">
              <mxPoint x="1921" y="1140" />
              <mxPoint x="84" y="1140" />
            </Array>
          </mxGeometry>
        </mxCell>
        <mxCell id="BKmWenFuKRzlJbGweNQv-108" value="Publish data" style="whiteSpace=wrap;html=1;dashed=0;" vertex="1" parent="WIyWlLk6GJQsqaUBKTNV-1">
          <mxGeometry x="1861" y="509" width="120" height="60" as="geometry" />
        </mxCell>
        <mxCell id="BKmWenFuKRzlJbGweNQv-116" value="" style="edgeStyle=orthogonalEdgeStyle;rounded=0;orthogonalLoop=1;jettySize=auto;html=1;entryX=0.5;entryY=1;entryDx=0;entryDy=0;fillColor=#dae8fc;strokeColor=#6c8ebf;" edge="1" parent="WIyWlLk6GJQsqaUBKTNV-1" source="BKmWenFuKRzlJbGweNQv-77" target="RUBS9IUcs-Wi7rJqknGV-21">
          <mxGeometry relative="1" as="geometry">
            <mxPoint x="1406" y="300" as="sourcePoint" />
            <mxPoint x="84" y="809" as="targetPoint" />
            <Array as="points">
              <mxPoint x="1406" y="390" />
              <mxPoint x="1720" y="390" />
              <mxPoint x="1720" y="1140" />
              <mxPoint x="84" y="1140" />
            </Array>
          </mxGeometry>
        </mxCell>
        <mxCell id="BKmWenFuKRzlJbGweNQv-117" value="No" style="edgeLabel;html=1;align=center;verticalAlign=middle;resizable=0;points=[];" vertex="1" connectable="0" parent="BKmWenFuKRzlJbGweNQv-116">
          <mxGeometry x="-0.9286" y="-5" relative="1" as="geometry">
            <mxPoint x="-27" y="-5" as="offset" />
          </mxGeometry>
        </mxCell>
        <mxCell id="BKmWenFuKRzlJbGweNQv-120" style="edgeStyle=orthogonalEdgeStyle;rounded=0;orthogonalLoop=1;jettySize=auto;html=1;entryX=0;entryY=0.5;entryDx=0;entryDy=0;" edge="1" parent="WIyWlLk6GJQsqaUBKTNV-1" source="BKmWenFuKRzlJbGweNQv-114" target="BKmWenFuKRzlJbGweNQv-17">
          <mxGeometry relative="1" as="geometry">
            <Array as="points">
              <mxPoint x="1830" y="330" />
              <mxPoint x="1830" y="629" />
            </Array>
          </mxGeometry>
        </mxCell>
        <mxCell id="BKmWenFuKRzlJbGweNQv-121" value="Yes" style="edgeLabel;html=1;align=center;verticalAlign=middle;resizable=0;points=[];" vertex="1" connectable="0" parent="BKmWenFuKRzlJbGweNQv-120">
          <mxGeometry x="-0.5873" y="3" relative="1" as="geometry">
            <mxPoint as="offset" />
          </mxGeometry>
        </mxCell>
        <mxCell id="BKmWenFuKRzlJbGweNQv-114" value="User wants to&lt;div&gt;&amp;nbsp;login&lt;/div&gt;" style="rhombus;whiteSpace=wrap;html=1;dashed=0;" vertex="1" parent="WIyWlLk6GJQsqaUBKTNV-1">
          <mxGeometry x="1700.5" y="280" width="106" height="100" as="geometry" />
        </mxCell>
      </root>
    </mxGraphModel>
  </diagram>
</mxfile>
